<svg width="48" height="54" viewBox="0 0 48 54" fill="none" xmlns="http://www.w3.org/2000/svg">
    <path d="M24 0V54L9.91422 44.3659C3.70564 40.1114 0 33.2591 0 26.0182V9.12273H0.0216705C3.99819 8.775 7.88804 7.91591 11.6262 6.60682C16.1011 5.03182 20.2619 2.8125 24 0Z"
          fill="#7A7A7A"/>
    <path d="M24 2V0C24.9358 0.704112 25.8982 1.37105 26.8853 2H24Z" fill="#7A7A7A"/>
    <path d="M24 4V6H34.7459C33.2415 5.40737 31.7754 4.74002 30.352 4H24Z" fill="#7A7A7A"/>
    <path d="M24 10V8H41.1026C43.3562 8.541 45.6524 8.91934 47.9783 9.12273H48V10H24Z" fill="#7A7A7A"/>
    <path d="M24 12V14H48V12H24Z" fill="#7A7A7A"/>
    <path d="M24 18V16H48V18H24Z" fill="#7A7A7A"/>
    <path d="M24 20V22H48V20H24Z" fill="#7A7A7A"/>
    <path d="M24 26V24H48V26H24Z" fill="#7A7A7A"/>
    <path d="M24 28V30H47.6239C47.7495 29.3398 47.8443 28.6725 47.9073 28H24Z" fill="#7A7A7A"/>
    <path d="M24 34V32H47.1434C46.9462 32.6773 46.716 33.3447 46.454 34H24Z" fill="#7A7A7A"/>
    <path d="M24 36V38H44.3608C44.788 37.3521 45.1804 36.6845 45.5365 36H24Z" fill="#7A7A7A"/>
    <path d="M24 42V40H42.8788C42.2997 40.6985 41.676 41.3666 41.01 42H24Z" fill="#7A7A7A"/>
    <path d="M24 44V46H35.6966L38.0858 44.3659C38.2608 44.246 38.4338 44.124 38.6048 44H24Z" fill="#7A7A7A"/>
    <path d="M24 50V48H32.7725L29.8483 50H24Z" fill="#7A7A7A"/>
    <path d="M24 52V54L26.9242 52H24Z" fill="#7A7A7A"/>
</svg>
